<svg width="30" height="30" viewBox="0 0 30 30" fill="none" xmlns="http://www.w3.org/2000/svg">
<path d="M25.5614 25.5609H21.1164V18.5996C21.1164 16.9396 21.0867 14.8027 18.8045 14.8027C16.4893 14.8027 16.1351 16.6114 16.1351 18.4787V25.5604H11.6902V11.2452H15.9573V13.2016H16.0171C16.4441 12.4714 17.0612 11.8707 17.8026 11.4635C18.5441 11.0562 19.3821 10.8577 20.2274 10.8891C24.7327 10.8891 25.5633 13.8525 25.5633 17.7078L25.5614 25.5609ZM6.67453 9.28855C5.24988 9.28878 4.09477 8.13402 4.09453 6.70937C4.0943 5.28472 5.24895 4.12961 6.67359 4.12937C8.09824 4.12902 9.25336 5.28378 9.25359 6.70843C9.25372 7.39258 8.98207 8.04875 8.4984 8.53262C8.01474 9.01648 7.35868 9.28839 6.67453 9.28855ZM8.89711 25.561H4.44738V11.2452H8.89699V25.5609L8.89711 25.561ZM27.7774 0.00120686H2.21379C1.00559 -0.0123869 0.0147656 0.955465 0 2.16367V27.8339C0.0142969 29.0427 1.005 30.0115 2.21367 29.9989H27.7774C28.9887 30.0139 29.9832 29.0451 30 27.8339V2.16168C29.9828 0.951129 28.9881 -0.0166056 27.7774 -0.000785325" fill="#0A66C2"/>
</svg>
